<svg xmlns="http://www.w3.org/2000/svg" viewBox="0 0 150.79 150.81"><path d="M82.46,0c.45.15.89.33,1.34.46C90,2.27,93.87,7.42,94,14.14,94.07,17,94.08,17,96.8,18a52.34,52.34,0,0,1,5.37,2.36,1.61,1.61,0,0,0,2.34-.44,14.45,14.45,0,0,1,8-4.94c4.39-.88,8.47-.13,11.84,2.85a92.8,92.8,0,0,1,8.54,8.52,13.71,13.71,0,0,1-.59,18.49c-.79.85-2,1.63-2.22,2.61s.83,2,1.26,3c.71,1.72,1.43,3.44,2,5.2a1.39,1.39,0,0,0,1.57,1.11,25.69,25.69,0,0,1,5,.33,13.67,13.67,0,0,1,10.89,13.52q0,4.65,0,9.28c0,7.78-5.69,13.89-13.45,14-2.81,0-4.32.7-4.84,3.5a14.65,14.65,0,0,1-1.26,3.13c-.43,1-.91,1.94-1.49,3.16.85.76,1.79,1.49,2.59,2.34a13.69,13.69,0,0,1,.48,18.48,91.1,91.1,0,0,1-8.21,8.23,13.71,13.71,0,0,1-18.7-.48c-.82-.78-1.56-1.63-2.21-2.31-3.12,1.24-6,2.36-8.9,3.58a1.86,1.86,0,0,0-.75,1.32c-.29,2.13-.16,4.36-.76,6.38a13.55,13.55,0,0,1-13.06,9.57q-4.78,0-9.57,0a13.48,13.48,0,0,1-13.73-13.23c0-3.07-.88-4.56-3.84-5.22a19.87,19.87,0,0,1-4.7-2,1.42,1.42,0,0,0-1.88.3c-1.73,1.49-3.4,3.24-5.42,4.18a13.09,13.09,0,0,1-14.93-2.1,94.35,94.35,0,0,1-7.84-7.78,13.76,13.76,0,0,1,.37-19.15c2.2-2.29,2.18-2.29.92-5.16-.63-1.43-1.23-2.88-1.78-4.35C17,94.05,17,94,14.58,94A14,14,0,0,1,.31,83.25,4.69,4.69,0,0,0,0,82.47V68.34a4.69,4.69,0,0,0,.31-.78,14,14,0,0,1,5.91-8.49,13.59,13.59,0,0,1,8.94-2.25A2.1,2.1,0,0,0,17.71,55a39.33,39.33,0,0,1,1.76-4.51c.43-1,1.43-2.14,1.25-3s-1.44-1.75-2.24-2.6a13.75,13.75,0,0,1-.37-18.72A103.56,103.56,0,0,1,26.24,18a13.3,13.3,0,0,1,12.07-3c3.39.68,5.95,2.68,8.19,5.15a1.32,1.32,0,0,0,1.86.35c2-1,4-1.81,6.06-2.62,2.31-.92,2.38-.88,2.34-3.45C56.7,9.88,58.24,6,61.86,3.23,63.74,1.79,66.15,1.05,68.32,0Zm-7,8.84c-1.52,0-3,0-4.57,0a5.06,5.06,0,0,0-5.23,5.33c0,2,0,3.92,0,5.89a4.41,4.41,0,0,1-3.46,4.67A57.25,57.25,0,0,0,49,30.23a4.37,4.37,0,0,1-5.76-.81c-1.44-1.4-2.83-2.86-4.28-4.26a4.93,4.93,0,0,0-7.33,0q-3.27,3.18-6.45,6.45a4.93,4.93,0,0,0,0,7.33c1.41,1.45,2.86,2.84,4.26,4.28a4.37,4.37,0,0,1,.8,5.76,57.32,57.32,0,0,0-5.5,13.25A4.41,4.41,0,0,1,20,65.67c-2,0-4,0-6,0a5,5,0,0,0-5.15,5q-.13,4.78,0,9.57A5,5,0,0,0,14,85.13c2,0,3.93,0,5.89,0,2.64,0,4.15,1.09,4.85,3.6a57.43,57.43,0,0,0,5.4,13c1.3,2.28,1,4.1-.83,6-1.37,1.4-2.79,2.76-4.16,4.17a4.93,4.93,0,0,0,0,7.33q3.18,3.27,6.45,6.45a4.94,4.94,0,0,0,7.34,0c1.44-1.4,2.83-2.86,4.28-4.26a4.39,4.39,0,0,1,5.76-.8,57.25,57.25,0,0,0,13.24,5.5,4.41,4.41,0,0,1,3.45,4.68c0,2,0,4,0,6a5,5,0,0,0,5,5.15q4.78.13,9.57,0a5,5,0,0,0,4.94-5.16c0-2,0-3.93,0-5.89,0-2.64,1.09-4.14,3.6-4.85a57,57,0,0,0,13-5.4c2.28-1.3,4.09-1,6,.84,1.37,1.34,2.7,2.72,4.07,4.05,2.36,2.32,5.18,2.34,7.54,0q3.16-3.09,6.25-6.25c2.3-2.35,2.27-5.17,0-7.55-1.36-1.4-2.79-2.76-4.15-4.17a4.36,4.36,0,0,1-.8-5.76,57.32,57.32,0,0,0,5.5-13.25,4.43,4.43,0,0,1,4.68-3.45c2,0,4,0,6,0a5,5,0,0,0,5.14-4.95c.09-3.19.1-6.38,0-9.57a5,5,0,0,0-5.16-4.94c-2,0-3.92,0-5.88,0-2.63,0-4.14-1.11-4.85-3.61a57.43,57.43,0,0,0-5.4-13c-1.3-2.28-1-4.09.85-6,1.37-1.4,2.79-2.76,4.15-4.17a5,5,0,0,0,0-7.34q-3.18-3.27-6.46-6.45a4.93,4.93,0,0,0-7.33,0c-1.44,1.41-2.83,2.86-4.28,4.26a4.35,4.35,0,0,1-5.76.79,57.14,57.14,0,0,0-13.25-5.5A4.41,4.41,0,0,1,85.13,20c0-2,0-3.93,0-5.89a5.07,5.07,0,0,0-5.25-5.31C78.4,8.81,76.93,8.84,75.46,8.84Z" style="fill:#fff"/><path d="M42.53,75.34a32.86,32.86,0,1,1,32.8,32.94A33,33,0,0,1,42.53,75.34Zm9,0a23.9,23.9,0,1,0,24-23.85A23.81,23.81,0,0,0,51.5,75.35Z" style="fill:#fff"/></svg>