<svg xmlns="http://www.w3.org/2000/svg" viewBox="0 0 220.13 125.86"><path d="M168.1,106v19.85h-124A30.85,30.85,0,0,1,13.3,95V55H4.19A4.17,4.17,0,0,1,.57,48.77l1-1.74,12.1-21,6.15-10.65a4.18,4.18,0,0,1,7.24,0l.59,1,.51.89,5.63,9.76L45.31,47l1,1.74A4.18,4.18,0,0,1,42.69,55H33.14V95a11,11,0,0,0,11,11Z" style="fill:#fff"/><path d="M220.13,83.25a4,4,0,0,1-.55,2.24l-19.25,33.34a4.18,4.18,0,0,1-7.24,0L189,111.69l-5-8.72L173.84,85.49a4.08,4.08,0,0,1-.56-2.24,4.18,4.18,0,0,1,4.18-4h9.88V30.82a11,11,0,0,0-11-11H51.49V0H176.36a30.85,30.85,0,0,1,30.82,30.82v48.4H216A4.17,4.17,0,0,1,220.13,83.25Z" style="fill:#fff"/></svg>