<svg xmlns="http://www.w3.org/2000/svg" viewBox="0 0 144.67 144.16"><path d="M144.67,23c-.24.79-.46,1.59-.71,2.38a17.05,17.05,0,0,1-4.34,7q-31.7,31.71-63.41,63.38a6.66,6.66,0,0,1-2.74,1.6q-14.74,4.17-29.54,8.22c-3.2.88-5.57-1.49-4.69-4.69q4-14.79,8.21-29.55a6.36,6.36,0,0,1,1.6-2.73q31.7-31.8,63.47-63.52c6.78-6.77,16.63-6.7,23.46,0,.2.2.39.41.6.6,3.8,3.46,7.16,7.19,8.09,12.5Zm-88,48.41L73.2,87.92l52.15-52.16L108.83,19.21Zm74.21-41.09A54.12,54.12,0,0,0,135.45,26a8.57,8.57,0,0,0,0-11,49.86,49.86,0,0,0-5.68-5.67,7.86,7.86,0,0,0-9.34-1c-2.36,1.35-4.28,3.44-6.33,5.15Zm-83,66.63,18.3-5.08L52.93,78.6C51.29,84.53,49.62,90.54,47.86,96.92Z" style="fill:#fff"/><path d="M17.86,144.16c-1.39-.23-2.79-.37-4.15-.71A17.92,17.92,0,0,1,.07,125.92c0-31,.1-62.06-.07-93.08C0,23.45,6.89,14.07,18.48,14c10.31,0,20.62,0,30.93,0a4,4,0,0,1,3.93,2.22,3.27,3.27,0,0,1-.49,3.69,3.93,3.93,0,0,1-3.38,1.38q-15.24,0-30.5,0c-4.7,0-8.47,1.8-10.52,6.2a12.21,12.21,0,0,0-1.06,5q-.09,46.53,0,93.07c0,6.76,4.68,11.17,11.66,11.18q19.9,0,39.82,0h59.31c4.69,0,8.52-1.72,10.55-6.13a14.23,14.23,0,0,0,1.17-5.71c.11-10.12,0-20.25.06-30.37,0-2.79,1.71-4.47,4.13-4.13a3.59,3.59,0,0,1,3,2.94,8.36,8.36,0,0,1,.1,1.41c0,10.17,0,20.34,0,30.51,0,8.55-4.68,15.21-12.42,17.76a45.61,45.61,0,0,1-5.49,1.11Z" style="fill:#fff"/></svg>